# xmcd CD database file
#
# Track frame offsets:
#	150
#	3318
#	24264
#	44860
#	62227
#	78683
#	95098
#	109105
#	123401
#	140493
#
# Disc length: 2170 seconds
#
# Revision: 0
# Processed by: cddbd v1.5PL3 Copyright (c) Steve Scherf et al.
# Submitted via: CDex 1.51
#
DISCID=8a08780a
DTITLE=みっくすJUICE - カンパイ！旅立ちの日
DYEAR=2004
DGENRE=Anime
TTITLE0=KANPAI！(Instrumental)
TTITLE1=みっくすJUICE - ロケットガール
TTITLE2=みっくすJUICE - 乙女に捧ぐ……
TTITLE3=みっくすJUICE - THE IJIN-DEN 天才の法則
TTITLE4=夏輪ひまわり(中原麻衣) - Mr. Linesman
TTITLE5=冬出ゆり(植田佳奈) - Destination
TTITLE6=秋茂あやめ(斉藤千和) - 流れ星
TTITLE7=春野さくら(森永理科) - 恋はショートコント
TTITLE8=みっくすJUICE - MOON de GO！ GO！
TTITLE9=みっくすJUICE - カンパイ！旅立ちの日
EXTD=YEAR: 2004/01/21
EXTT0=
EXTT1=
EXTT2=
EXTT3=
EXTT4=
EXTT5=
EXTT6=
EXTT7=
EXTT8=
EXTT9=
PLAYORDER=
